<svg width="71" height="71" viewBox="0 0 71 71" fill="none" xmlns="http://www.w3.org/2000/svg">
<path d="M44.8839 40.4922C42.471 40.4922 40.14 39.4216 38.3192 37.4788C36.5182 35.5254 35.4414 33.0135 35.2684 30.3622C35.0646 27.4917 35.9451 24.85 37.7479 22.9266C39.5506 21.0032 42.0703 19.9688 44.8839 19.9688C47.6768 19.9688 50.2048 21.0254 52.002 22.9446C53.7991 24.8639 54.7019 27.5208 54.498 30.365C54.3217 33.0147 53.2454 35.5246 51.4473 37.4788C49.6251 39.4216 47.2954 40.4922 44.8839 40.4922ZM22.7172 40.9581C18.5903 40.9581 14.9613 37.1433 14.6285 32.4534C14.4579 30.0516 15.204 27.8314 16.7321 26.2021C18.2603 24.5727 20.3681 23.706 22.7158 23.706C25.0636 23.706 27.17 24.599 28.6884 26.2215C30.2069 27.8439 30.9765 30.0793 30.8032 32.4617C30.4648 37.1446 26.8372 40.9581 22.7172 40.9581ZM58.2935 49.2673C58.073 48.6156 57.5363 47.9208 56.4603 47.2621C53.207 45.275 49.2049 44.2238 44.8839 44.2238C40.6447 44.2238 36.5317 45.3194 33.3007 47.3093C29.6605 49.5516 27.2144 52.8215 26.2284 56.7639C25.9954 57.6917 25.6557 59.4181 26.019 60.3847C31.8494 62.6018 38.2729 62.7036 44.1706 60.6721C50.0683 58.6407 55.0666 54.6048 58.2949 49.2673H58.2935ZM22.6909 55.6587C23.6713 51.7468 25.7583 48.4852 28.9963 45.8477C29.1494 45.7214 29.2658 45.5564 29.3333 45.3698C29.4009 45.1832 29.4172 44.9819 29.3806 44.7869C29.3439 44.5919 29.2555 44.4102 29.1248 44.261C28.994 44.1117 28.8256 44.0002 28.6371 43.9382C26.9731 43.4071 25.0733 43.1228 22.7172 43.1228C19.4141 43.1228 15.907 44.0172 13.2681 45.6425C12.5193 46.1042 11.7843 46.2817 11.2186 46.4398C13.4901 51.4603 17.2571 55.6565 22.0044 58.4544L22.2527 58.4349C22.307 57.4974 22.4537 56.5674 22.6909 55.6587Z" fill="#4A6FA5"/>
<path d="M35.5 64.3438C19.5957 64.3438 6.65625 51.4043 6.65625 35.5C6.65625 19.5957 19.5957 6.65625 35.5 6.65625C51.4043 6.65625 64.3438 19.5957 64.3438 35.5C64.3438 51.4043 51.4043 64.3438 35.5 64.3438ZM35.5 11.0938C22.0488 11.0938 11.0938 22.0488 11.0938 35.5C11.0938 48.9512 22.0488 59.9062 35.5 59.9062C48.9512 59.9062 59.9062 48.9581 59.9062 35.5C59.9062 22.0419 48.9581 11.0938 35.5 11.0938Z" fill="#4A6FA5"/>
</svg>
